<svg width="12" height="18" viewBox="0 0 12 18" fill="none" xmlns="http://www.w3.org/2000/svg">
<path d="M0.000709751 5.75279C-0.0106594 6.15071 0.114401 6.49179 0.387261 6.77602C0.660121 7.06025 0.989827 7.19667 1.39912 7.18531C1.78567 7.20804 2.11537 7.07161 2.3996 6.76465L4.28688 4.90011V16.6103C4.27551 17.0083 4.41194 17.338 4.69617 17.6108C4.9804 17.8837 5.32147 18.0087 5.74213 17.9974C6.12868 18.0201 6.46976 17.8951 6.75399 17.6336C7.03822 17.3721 7.19739 17.031 7.20876 16.6331V4.92284L9.0733 6.78738C9.33479 7.06024 9.67586 7.20804 10.0738 7.20804C10.4831 7.20804 10.8241 7.07161 11.097 6.79875C11.3699 6.52589 11.5063 6.19619 11.5063 5.7869C11.4836 5.37761 11.3358 5.05927 11.0515 4.82052L6.79946 0.454766C6.5266 0.193276 6.17416 0.0341075 5.7535 0C5.33284 0.0227383 4.9804 0.181906 4.70754 0.466135L0.444107 4.79778C0.148509 5.0479 0.000709751 5.36624 0.000709751 5.75279Z" fill="#C12A69"/>
</svg>
