<svg width="12" height="18" viewBox="0 0 12 18" fill="none" xmlns="http://www.w3.org/2000/svg">
<path d="M0.000709751 12.2472C-0.0106594 11.8493 0.114401 11.5082 0.387261 11.224C0.660121 10.9398 0.989827 10.8033 1.39912 10.8147C1.78567 10.792 2.11537 10.9284 2.3996 11.2354L4.28688 13.0999V1.38966C4.27551 0.991745 4.41194 0.662039 4.69617 0.389179C4.9804 0.11632 5.32147 -0.00874138 5.74213 0.00262833C6.12868 -0.0201092 6.46976 0.10495 6.75399 0.366442C7.03822 0.627932 7.19739 0.969006 7.20876 1.36693V13.0772L9.0733 11.2126C9.33479 10.9398 9.67586 10.792 10.0738 10.792C10.4831 10.792 10.8241 10.9284 11.097 11.2012C11.3699 11.4741 11.5063 11.8038 11.5063 12.2131C11.4836 12.6224 11.3358 12.9407 11.0515 13.1795L6.79946 17.5452C6.5266 17.8067 6.17416 17.9659 5.7535 18C5.33284 17.9773 4.9804 17.8181 4.70754 17.5339L0.444107 13.2022C0.148509 12.9521 0.000709751 12.6338 0.000709751 12.2472Z" fill="#2A9DC1"/>
</svg>
