<svg width="18" height="12" viewBox="0 0 18 12" fill="none" xmlns="http://www.w3.org/2000/svg">
<path d="M0 8.3477C0 7.54536 0.251238 6.82407 0.753715 6.20002C1.25619 5.57598 1.89644 5.17076 2.68258 4.99246C2.89329 4.04424 3.37145 3.2581 4.12517 2.65837C4.87888 2.05054 5.74606 1.75068 6.7348 1.75068C7.69113 1.75068 8.5502 2.04244 9.29581 2.63406C10.0495 3.22569 10.5358 3.9794 10.7546 4.90331H10.9734C11.9298 4.90331 12.7402 5.23559 13.4129 5.90826C14.0855 6.58093 14.4259 7.39138 14.4259 8.3396C14.4259 9.29593 14.0855 10.1064 13.4129 10.779C12.7402 11.4517 11.9298 11.7921 10.9734 11.7921H3.4606C2.99054 11.7921 2.5448 11.7029 2.12337 11.5165C1.70194 11.3301 1.32103 11.1032 1.01306 10.7953C0.705088 10.4873 0.461954 10.1145 0.275551 9.69304C0.089149 9.27161 0 8.80966 0 8.3477ZM1.17515 8.3477C1.17515 8.96364 1.40207 9.49854 1.83971 9.93618C2.27735 10.3738 2.82035 10.6007 3.4525 10.6007H10.9734C11.5975 10.6007 12.1405 10.3819 12.5862 9.93618C13.032 9.49043 13.2589 8.96364 13.2589 8.3477C13.2589 7.73177 13.0401 7.19687 12.5862 6.75923C12.1405 6.32159 11.6056 6.09466 10.9734 6.09466H9.84692C9.76587 6.09466 9.72535 6.05414 9.72535 5.9731L9.66862 5.57598C9.58757 4.81416 9.26339 4.17391 8.70419 3.67143C8.14498 3.16896 7.48041 2.91772 6.7186 2.91772C5.95678 2.91772 5.29221 3.16896 4.7249 3.67954C4.15759 4.18201 3.84151 4.82226 3.76857 5.57598L3.71184 5.91637C3.71184 5.99741 3.67132 6.03793 3.58217 6.03793L3.21747 6.09466C2.63395 6.14329 2.14768 6.38643 1.75056 6.81596C1.37776 7.2455 1.17515 7.75608 1.17515 8.3477ZM8.34759 1.28062C8.26655 1.35356 8.28275 1.41029 8.40432 1.45081C8.75281 1.6048 9.04457 1.75068 9.2796 1.89656C9.36875 1.92087 9.43359 1.91276 9.4579 1.87224C9.95227 1.41029 10.5196 1.17526 11.176 1.17526C11.8325 1.17526 12.3917 1.39408 12.878 1.83172C13.3561 2.26936 13.6236 2.81236 13.6803 3.45261L13.7533 3.9713H14.9041C15.4309 3.9713 15.8847 4.1577 16.2656 4.53861C16.6466 4.91952 16.833 5.36526 16.833 5.88395C16.833 6.37022 16.6628 6.79165 16.3305 7.15635C15.9982 7.52105 15.5849 7.72366 15.0905 7.78039C15.0095 7.78039 14.9689 7.82091 14.9689 7.91006V8.82587C14.9689 8.91502 15.0095 8.95554 15.0905 8.95554C15.909 8.90691 16.5979 8.58273 17.1571 7.99111C17.7163 7.39948 18 6.69439 18 5.88395C18 5.02488 17.7001 4.29547 17.0923 3.69574C16.4845 3.08791 15.7551 2.78805 14.9041 2.78805H14.7825C14.5718 1.9776 14.1261 1.31303 13.4453 0.786245C12.7726 0.259455 12.0108 0.000112568 11.176 0.000112568C10.0414 -0.00799189 9.0932 0.421544 8.34759 1.28062Z" fill="#C12A69"/>
</svg>
