<svg width="100" height="100" viewBox="0 0 100 100" fill="none" xmlns="http://www.w3.org/2000/svg">
<rect width="100" height="100" rx="5" fill="url(#paint0_radial_2_118)"/>
<path d="M11.1111 57.9295C11.1111 61.8377 12.4643 65.2169 15.2 68.0379C17.9357 70.8588 21.2597 72.3574 25.2309 72.5338C25.5545 72.5338 25.731 72.3575 25.731 72.0342V68.0967C25.731 67.7734 25.5545 67.5971 25.2309 67.5971C22.7011 67.4796 20.5537 66.4511 18.7888 64.5705C17.0238 62.6898 16.1413 60.4566 16.1413 57.9295C16.1413 55.5199 16.965 53.4042 18.6417 51.5824C20.3184 49.7605 22.3775 48.7321 24.8191 48.4382L26.3782 48.2913C26.7606 48.2913 26.9665 48.115 26.9665 47.7917L27.1724 46.205C27.496 43.0314 28.8197 40.3574 31.2024 38.2123C33.5851 36.0672 36.3797 34.98 39.5861 34.98C42.7924 34.98 45.587 36.0672 47.9991 38.2123C50.4112 40.3574 51.7644 43.0314 52.1174 46.205L52.3233 47.8799C52.3233 48.2325 52.4998 48.4382 52.8234 48.4382H57.5888C60.2069 48.4382 62.4425 49.3785 64.3546 51.2591C66.2666 53.1398 67.2079 55.3436 67.2079 57.9295C67.2079 60.486 66.3254 62.6898 64.5605 64.5705C62.7955 66.4511 60.6481 67.4502 58.1477 67.5971C57.7947 67.5971 57.5888 67.7734 57.5888 68.0967V72.0342C57.5888 72.3575 57.7653 72.5338 58.1477 72.5338C62.0601 72.4162 65.3841 70.9176 68.1198 68.0967C70.8555 65.2463 72.2087 61.8671 72.2087 57.9589C72.2087 55.8432 71.7969 53.8744 70.9732 52.0525C73.2677 49.2022 74.4149 45.9699 74.4149 42.3262C74.4149 39.5346 73.7089 36.9487 72.3264 34.5686C70.9438 32.1884 69.0612 30.3078 66.6784 28.9267C64.2957 27.5456 61.7365 26.8697 58.9714 26.8697C54.3824 26.8697 50.5877 28.5741 47.5579 31.9827C45.1457 30.6898 42.4983 30.0433 39.5861 30.0433C35.4384 30.0433 31.7319 31.3362 28.5255 33.9221C25.3192 36.508 23.26 39.7991 22.3481 43.7954C19.0829 44.5594 16.406 46.2637 14.2881 48.9084C12.1701 51.553 11.1111 54.5502 11.1111 57.9295ZM26.9959 78.0875C26.9959 78.587 27.143 79.0572 27.4666 79.5273C27.7901 79.9975 28.2608 80.3207 28.908 80.497C29.2315 80.5558 29.4963 80.6146 29.7022 80.6146C30.8494 80.6146 31.6143 79.9975 31.9672 78.734L36.615 61.4557C36.8209 60.7504 36.7327 60.104 36.3797 59.4869C36.0267 58.8698 35.4972 58.5172 34.8206 58.3703C34.1735 58.1646 33.5557 58.2233 32.9674 58.576C32.3791 58.8992 31.9672 59.3987 31.7613 60.0746L27.1136 77.441C27.0547 77.823 26.9959 78.0287 26.9959 78.0875ZM34.6735 87.138C34.6735 87.6963 34.8206 88.1959 35.1148 88.666C35.4089 89.1362 35.909 89.43 36.6444 89.5476C36.968 89.6063 37.2328 89.6651 37.4093 89.6651C37.8799 89.6651 38.3212 89.4888 38.733 89.1656C39.1448 88.813 39.4096 88.3428 39.5272 87.7551L46.5871 61.5145C46.7636 60.8386 46.7048 60.1921 46.3812 59.6338C46.0576 59.0755 45.5576 58.6641 44.9104 58.4584C44.2338 58.2527 43.5867 58.3115 42.9983 58.6641C42.41 58.9874 41.9982 59.4869 41.8217 60.1627L34.7618 86.4034C34.703 86.8442 34.6735 87.1086 34.6735 87.138ZM35.909 21.8155C35.909 22.5208 36.1444 23.1085 36.6444 23.608L38.5565 25.5474C39.1154 25.9882 39.7331 26.1939 40.3803 26.1939C40.998 26.1939 41.5864 25.9588 42.0864 25.518C42.5865 25.0479 42.8513 24.4896 42.8513 23.7843C42.8513 23.0791 42.6159 22.4326 42.1453 21.9037L40.2626 19.9937C39.7331 19.4941 39.1448 19.2591 38.4977 19.2591C37.7917 19.2591 37.1739 19.5235 36.6738 20.0231C36.1738 20.5226 35.909 21.1397 35.909 21.8155ZM46.8813 78.1463C46.8813 78.6164 47.0284 79.0866 47.3225 79.5273C47.6167 79.9681 48.0874 80.2914 48.6757 80.4677C48.9993 80.5264 49.264 80.5852 49.4111 80.5852C49.9112 80.5852 50.4112 80.4383 50.8525 80.1444C51.2937 79.8506 51.5879 79.3804 51.735 78.7046L56.3827 61.4263C56.5592 60.7504 56.5004 60.104 56.1768 59.5457C55.8533 58.958 55.3532 58.576 54.706 58.3703C54 58.1646 53.3823 58.2233 52.794 58.576C52.2056 58.8992 51.8232 59.3987 51.6467 60.0746L46.999 77.441C46.9401 77.8818 46.8813 78.1169 46.8813 78.1463ZM51.6761 34.833C53.7647 32.8642 56.1768 31.8945 58.9714 31.8945C61.8542 31.8945 64.3251 32.923 66.3254 34.9506C68.3552 36.9781 69.3553 39.4464 69.3553 42.3555C69.3553 44.1774 68.8552 45.9993 67.8257 47.7917C64.9723 44.9414 61.56 43.5309 57.5594 43.5309H56.5887C55.7944 40.0635 54.1471 37.1838 51.6761 34.833ZM56.4416 19.406C56.4416 20.0818 56.6769 20.6695 57.177 21.1397C57.6771 21.6099 58.2654 21.8449 58.9714 21.8449C59.648 21.8449 60.2363 21.6099 60.7069 21.1691C61.1776 20.6989 61.4129 20.1406 61.4129 19.4354V13.3821C61.4129 12.6181 61.1776 12.001 60.7363 11.5309C60.2657 11.0607 59.7068 10.8256 59.0008 10.8256C58.2654 10.8256 57.6476 11.0607 57.177 11.5602C56.7063 12.0598 56.471 12.6475 56.471 13.3821V19.406H56.4416ZM72.7088 26.1057C72.7088 26.811 72.9735 27.3987 73.503 27.8394C73.9148 28.3096 74.4443 28.5447 75.1209 28.6034C75.7975 28.6622 76.4152 28.3977 76.9447 27.8394L81.1806 23.6374C81.7101 23.1379 81.9455 22.5208 81.9455 21.7862C81.9455 21.0809 81.7101 20.4638 81.2101 19.9937C80.71 19.5235 80.1217 19.2885 79.4157 19.2885C78.7979 19.2885 78.239 19.5235 77.7095 20.0231L73.503 24.2545C72.9735 24.754 72.7088 25.3711 72.7088 26.1057ZM75.0915 60.9268C75.0915 61.632 75.3268 62.2491 75.7975 62.778L77.7095 64.6292C78.239 65.0406 78.8274 65.2463 79.4745 65.2463L79.5333 65.3051C80.2099 65.3051 80.7688 65.07 81.2395 64.5999C81.7101 64.1297 81.9455 63.5126 81.9455 62.8074C81.9455 62.1021 81.6807 61.5438 81.1806 61.1031L79.3568 59.1637C78.8274 58.6935 78.2096 58.4584 77.533 58.4584C76.8565 58.4584 76.2681 58.6935 75.7975 59.193C75.3268 59.6926 75.0915 60.2215 75.0915 60.9268ZM79.3863 42.3262C79.3863 43.0314 79.651 43.5897 80.1511 44.0599C80.6806 44.5888 81.2689 44.8239 81.9749 44.8239H87.9464C88.6524 44.8239 89.2407 44.5888 89.7408 44.0892C90.2409 43.5897 90.4762 43.002 90.4762 42.3262C90.4762 41.6209 90.2409 41.0332 89.7408 40.5337C89.2407 40.0341 88.6524 39.7697 87.9464 39.7697H81.9749C81.2689 39.7697 80.6806 40.0341 80.1511 40.5337C79.6216 41.0332 79.3863 41.6209 79.3863 42.3262Z" fill="white"/>
<defs>
<radialGradient id="paint0_radial_2_118" cx="0" cy="0" r="1" gradientUnits="userSpaceOnUse" gradientTransform="translate(-67.5 78.125) rotate(-9.08112) scale(154.436)">
<stop offset="0.305855" stop-color="#124576"/>
<stop offset="1" stop-color="#2A9DC1"/>
</radialGradient>
</defs>
</svg>
