<svg width="12" height="10" viewBox="0 0 12 10" fill="none" xmlns="http://www.w3.org/2000/svg">
<path d="M0 1.94605C0 1.40847 0.203007 0.946147 0.597744 0.569838C0.992481 0.19353 1.47744 0 2.04135 0C2.59398 0 3.07895 0.19353 3.47368 0.569838C3.86842 0.956899 4.07143 1.40847 4.07143 1.94605C4.07143 2.48364 3.86842 2.94596 3.47368 3.33302C3.07895 3.72008 2.59398 3.91361 2.04135 3.91361C1.48872 3.91361 1.00376 3.72008 0.597744 3.33302C0.203007 2.94596 0 2.48364 0 1.94605ZM0.992481 1.94605C0.992481 2.2256 1.09398 2.46213 1.29699 2.66642C1.51128 2.8707 1.7594 2.96746 2.05263 2.96746C2.34586 2.96746 2.59398 2.8707 2.80827 2.66642C3.02256 2.46213 3.12406 2.2256 3.12406 1.94605C3.12406 1.66651 3.02256 1.42997 2.80827 1.23644C2.59398 1.04291 2.34586 0.935395 2.05263 0.935395C1.7594 0.935395 1.51128 1.03216 1.29699 1.22569C1.09398 1.41922 0.992481 1.65576 0.992481 1.94605ZM5.96617 9.35396C5.96617 9.50448 6.02256 9.64425 6.13534 9.75177C6.24812 9.85928 6.39474 9.91304 6.55263 9.91304C6.71053 9.91304 6.85714 9.85928 6.96993 9.75177C7.08271 9.64425 7.1391 9.50448 7.1391 9.35396V5.27907H10.3647C10.5226 5.27907 10.6692 5.22531 10.782 5.10704C10.8947 4.98878 10.9511 4.85976 10.9511 4.69848C10.9511 4.53721 10.8947 4.40819 10.782 4.28992C10.6692 4.1824 10.5226 4.12864 10.3534 4.12864H7.12782V1.19344H11.4361C11.594 1.19344 11.7293 1.13968 11.8421 1.03216C11.9549 0.924644 12 0.784872 12 0.623597C12 0.462322 11.9436 0.333302 11.8421 0.215033C11.7406 0.0967649 11.6053 0.0537586 11.4361 0.0537586H6.05639C5.97744 0.0537586 5.94361 0.0967649 5.94361 0.172027V9.35396H5.96617Z" fill="white"/>
</svg>
