<svg width="12" height="16" viewBox="0 0 12 16" fill="none" xmlns="http://www.w3.org/2000/svg">
<path d="M0 9.49798C0 8.78543 0.194332 7.96761 0.582996 7.04453C0.97166 6.12146 1.47368 5.22267 2.08907 4.36437C3.35223 2.69636 4.45344 1.4332 5.37652 0.582996L5.98381 0C6.18623 0.210526 6.41296 0.404858 6.65587 0.582996C6.98785 0.923077 7.49798 1.48178 8.17814 2.2753C8.8583 3.06883 9.44939 3.77328 9.93522 4.42105C10.5101 5.23887 11.004 6.12146 11.4008 7.05263C11.7976 7.98381 12 8.80162 12 9.50607C12 10.3158 11.8462 11.085 11.5304 11.8219C11.2146 12.5587 10.7935 13.1984 10.2591 13.7328C9.7247 14.2672 9.08502 14.6964 8.34008 15.0121C7.59514 15.3279 6.80972 15.4899 5.98381 15.4899C5.17409 15.4899 4.40486 15.336 3.66802 15.0283C2.93117 14.7206 2.2915 14.3077 1.75708 13.7733C1.22267 13.247 0.793522 12.6073 0.477733 11.8704C0.161943 11.1336 0 10.3401 0 9.49798ZM1.82996 7.12551C1.82996 7.79757 1.96761 8.33198 2.25101 8.73684C2.53441 9.1336 2.96356 9.33603 3.53846 9.33603C4.12146 9.33603 4.55061 9.1336 4.84211 8.73684C5.12551 8.34008 5.27126 7.80567 5.27935 7.12551C5.27126 6.44534 5.12551 5.91093 4.84211 5.50607C4.5587 5.10931 4.12146 4.90688 3.53846 4.90688C2.96356 4.90688 2.53441 5.10931 2.25101 5.50607C1.96761 5.91093 1.82996 6.44534 1.82996 7.12551ZM3.10122 7.12551C3.10122 7.00405 3.10122 6.90688 3.10122 6.8421C3.10122 6.77733 3.10931 6.68826 3.11741 6.5749C3.12551 6.46154 3.1336 6.37247 3.1579 6.31579C3.18219 6.25911 3.19838 6.18623 3.23077 6.12146C3.26316 6.05668 3.30364 6 3.35223 5.97571C3.40891 5.94332 3.46559 5.92712 3.53846 5.92712C3.65182 5.92712 3.74089 5.95951 3.80567 6.02429C3.87045 6.08907 3.91903 6.19433 3.94332 6.33198C3.96761 6.47773 3.98381 6.59109 3.9919 6.69636C4 6.80162 4 6.93927 4 7.11741C4 7.30364 4 7.4413 3.9919 7.53846C3.98381 7.63563 3.96761 7.75708 3.94332 7.90283C3.91903 8.04049 3.87045 8.14575 3.80567 8.21053C3.74089 8.2753 3.65182 8.30769 3.53846 8.30769C3.46559 8.30769 3.40891 8.2915 3.35223 8.25911C3.29555 8.22672 3.25506 8.17814 3.23077 8.11336C3.19838 8.04858 3.17409 7.97571 3.1579 7.91903C3.1417 7.85425 3.12551 7.76518 3.11741 7.65992C3.10931 7.54656 3.10122 7.45749 3.10122 7.40081C3.10122 7.34413 3.10122 7.24696 3.10122 7.12551ZM3.57895 13.4008H4.64777L8.68826 4.70445H7.59514L3.57895 13.4008ZM7.06073 10.9798C7.06883 11.6599 7.22267 12.1943 7.50607 12.5992C7.78947 12.996 8.22672 13.1984 8.80162 13.1984C9.38462 13.1984 9.81377 12.996 10.0972 12.5992C10.3806 12.2024 10.5182 11.6599 10.5263 10.9798C10.5182 10.2996 10.3806 9.76518 10.0972 9.36842C9.81377 8.97166 9.38462 8.76923 8.80162 8.76923C8.22672 8.76923 7.78947 8.97166 7.50607 9.36842C7.21458 9.76518 7.06883 10.2996 7.06073 10.9798ZM8.33198 10.9798C8.33198 10.7935 8.33199 10.6559 8.34008 10.5587C8.34818 10.4615 8.36437 10.3401 8.38867 10.1943C8.41296 10.0486 8.46154 9.95142 8.52632 9.88664C8.59109 9.82186 8.68016 9.78947 8.79352 9.78947C8.8664 9.78947 8.93118 9.80567 8.98785 9.83806C9.04454 9.87045 9.08502 9.91903 9.11741 9.9919C9.1498 10.0648 9.17409 10.1296 9.19838 10.1862C9.22267 10.2429 9.23077 10.332 9.23887 10.4453L9.24696 10.7045V10.9798C9.24696 11.1093 9.24696 11.2065 9.24696 11.2632L9.23887 11.5223L9.19838 11.7814L9.11741 11.9757L8.98785 12.1296L8.79352 12.1781C8.68016 12.1781 8.59109 12.1457 8.52632 12.081C8.46154 12.0162 8.41296 11.9109 8.38867 11.7733C8.36437 11.6275 8.34818 11.5061 8.34008 11.4089C8.33199 11.3117 8.33198 11.166 8.33198 10.9798Z" fill="#2A9DC1"/>
</svg>
