<svg width="16" height="32" viewBox="0 0 16 32" fill="none" xmlns="http://www.w3.org/2000/svg">
<path d="M0 24.641C0 23.4097 0.297798 22.2653 0.878503 21.1933C1.45921 20.1213 2.27815 19.2377 3.33533 18.5278V4.15754C3.33533 2.99864 3.73736 2.01358 4.5563 1.21684C5.37525 0.4201 6.38776 0 7.57895 0C8.78503 0 9.79754 0.405614 10.6165 1.20235C11.4354 2.01358 11.8523 2.98416 11.8523 4.14305V18.5134C12.9095 19.2232 13.7136 20.1213 14.2943 21.1788C14.875 22.2363 15.1579 23.3952 15.1579 24.6265C15.1579 25.9593 14.8154 27.2051 14.1454 28.335C13.4753 29.4649 12.5522 30.3631 11.3908 31.0149C10.2293 31.6668 8.96371 32 7.57895 32C6.20908 32 4.94344 31.6668 3.78203 31.0149C2.62062 30.3631 1.69745 29.4649 1.01251 28.335C0.327578 27.2051 0 25.9737 0 24.641ZM2.62062 24.641C2.62062 25.9882 3.11198 27.1471 4.07983 28.1032C5.04767 29.0593 6.22397 29.5373 7.59384 29.5373C8.9786 29.5373 10.1698 29.0593 11.1674 28.0887C12.165 27.1182 12.6713 25.9737 12.6713 24.6555C12.6713 23.7574 12.433 22.9172 11.9566 22.1494C11.4801 21.3816 10.8249 20.7877 9.99111 20.3676L9.57419 20.1648C9.42529 20.1068 9.35084 19.962 9.35084 19.7447V4.15754C9.35084 3.69398 9.18705 3.30285 8.84459 2.98416C8.50212 2.67995 8.0852 2.5206 7.57895 2.5206C7.10247 2.5206 6.68555 2.67995 6.34309 2.98416C6.00062 3.28837 5.83683 3.67949 5.83683 4.15754V19.7157C5.83683 19.933 5.76238 20.0779 5.62837 20.1358L5.22635 20.3386C4.4074 20.7587 3.76714 21.3526 3.30555 22.1204C2.84397 22.8882 2.62062 23.7139 2.62062 24.641ZM3.78203 24.641C3.78203 25.6695 4.13939 26.5532 4.86899 27.2775C5.59859 28.0018 6.46221 28.364 7.48961 28.364C8.51701 28.364 9.39551 28.0018 10.1549 27.2775C10.9143 26.5532 11.2865 25.6695 11.2865 24.6555C11.2865 23.7429 10.9589 22.9316 10.3187 22.2363C9.67842 21.541 8.88926 21.1209 7.96608 21.005V10.3431C7.96608 10.2562 7.92141 10.1548 7.81718 10.0679C7.71296 9.9665 7.60873 9.92304 7.48961 9.92304C7.3556 9.92304 7.25137 9.9665 7.17692 10.0389C7.10247 10.1258 7.0578 10.2128 7.0578 10.3431V20.976C6.14952 21.1064 5.37525 21.512 4.73498 22.2073C4.09472 22.9172 3.78203 23.7139 3.78203 24.641Z" fill="#D5D788"/>
</svg>
