<svg width="16" height="9" viewBox="0 0 16 9" fill="none" xmlns="http://www.w3.org/2000/svg">
<path d="M0 5.3916C0 5.55294 0.0605043 5.69412 0.188235 5.8084C0.295798 5.93614 0.436975 5.99664 0.611765 5.99664H10.4874C10.6824 5.99664 10.8437 6.06387 10.9782 6.19832C11.1126 6.33277 11.1798 6.50084 11.1798 6.6958C11.1798 6.89076 11.1126 7.0521 10.9782 7.17983C10.8437 7.30756 10.6824 7.37479 10.4807 7.37479C10.2857 7.37479 10.1176 7.30756 9.98992 7.17983C9.88235 7.05882 9.7479 7.00504 9.58656 7.00504C9.41849 7.00504 9.27731 7.06555 9.1563 7.17983C9.03529 7.29412 8.97479 7.4353 8.97479 7.58992C8.97479 7.75798 9.03529 7.89916 9.16302 8.01345C9.5395 8.38319 9.98319 8.57143 10.4807 8.57143C11.005 8.57143 11.4555 8.38992 11.8319 8.02689C12.2084 7.66387 12.3899 7.22689 12.3899 6.70252C12.3899 6.17815 12.2017 5.73445 11.8252 5.35798C11.4487 4.98151 10.9983 4.79328 10.4807 4.79328H0.611765C0.443698 4.79328 0.302521 4.85378 0.181513 4.96807C0.0605042 5.08235 0 5.22353 0 5.3916ZM0 3.18655C0 3.34118 0.0605043 3.47563 0.188235 3.59664C0.302521 3.71765 0.443698 3.77143 0.611765 3.77143H14.084C14.6084 3.77143 15.0588 3.58992 15.4353 3.22017C15.8118 2.85714 16 2.41345 16 1.8958C16 1.37815 15.8118 0.927731 15.4353 0.557983C15.0588 0.188235 14.6084 0 14.084 0C13.5664 0 13.1294 0.181513 12.7731 0.537815C12.6521 0.645378 12.5916 0.793278 12.5916 0.988236C12.5916 1.16303 12.6521 1.3042 12.7664 1.41177C12.8807 1.51933 13.0218 1.57311 13.1899 1.57311C13.3513 1.57311 13.4924 1.51933 13.6134 1.41177C13.7412 1.27059 13.8958 1.20336 14.084 1.20336C14.279 1.20336 14.4403 1.27059 14.5748 1.40504C14.7092 1.5395 14.7765 1.70084 14.7765 1.8958C14.7765 2.09076 14.7092 2.2521 14.5748 2.37983C14.4403 2.50756 14.279 2.57479 14.084 2.57479H0.611765C0.443698 2.57479 0.302521 2.63529 0.181513 2.74958C0.0605042 2.87731 0 3.01849 0 3.18655Z" fill="#2AC18B"/>
</svg>
